@startuml

class Miembro{
e-mail : String

}

class BoardMember{

}

class Evento{
date: Date
descripcion: String
assign(l : Localizacion)) : void

}

class Conferencia{
max_attendees : int
}

class BoardMeeting{

}

class Localizacion{
descripcion : String
address : String
}

class Persona{
name: String

}

class AAUOC{
newLocation(l : Localizacion) : void
newEvent(e : Evento) : void
newPerson(p : Persona) : void
informEvent(e : Evento) : void
register(m : Miembro,e : Event) : void
}

Evento <|-- Conferencia
Evento <|-- BoardMeeting

Persona <|-- Miembro
Miembro <|-- BoardMember

AAUOC o-- "0..*" Persona
AAUOC o-- "0..*" Localizacion
AAUOC o-- "0..*" Evento

Persona "0..*" -- "0..*" Conferencia : "attendsTo"

BoardMeeting "0..*"  -- "0..*" BoardMember: "attendsTo"

Evento "0..*" -- "0..*" Miembro: "attendsTo"

Localizacion "1" -- "0..*" Evento: "isLocated in"


@enduml